<?xml version="1.0" encoding="UTF-8" standalone="no"?>
<!DOCTYPE svg PUBLIC "-//W3C//DTD SVG 1.1//EN" "http://www.w3.org/Graphics/SVG/1.1/DTD/svg11.dtd">
<svg width="1920px" height="1080px" version="1.1" xmlns="http://www.w3.org/2000/svg" xmlns:xlink="http://www.w3.org/1999/xlink" xml:space="preserve" xmlns:serif="http://www.serif.com/" style="fill-rule:evenodd;clip-rule:evenodd;stroke-linejoin:round;stroke-miterlimit:2;">
    <g id="HealthBarTextBG" transform="matrix(0.832544,0,0,0.258655,130.401,226.978)">
        <rect x="54" y="44" width="32" height="103" style="fill:rgb(50,50,50);"/>
        <path d="M86,44L86,147L54,147L54,44L86,44ZM84.799,47.866L55.201,47.866L55.201,143.134L84.799,143.134L84.799,47.866Z"/>
    </g>
    <g transform="matrix(1.17245,0,0,1.17245,13.5483,4.85338)">
        <g transform="matrix(10.907,0,0,10.907,158.381,214.623)">
        </g>
        <text x="140.327px" y="214.623px" style="font-family:'Neue Haas Grotesk Display Pro 65 Medium';font-style:italic;font-size:10.907px;fill:white;">100</text>
    </g>
    <g id="HealthBarOuter" transform="matrix(0.832544,0,0,1.7485,130.401,-22.9342)">
        <rect x="54" y="44" width="32" height="103" style="fill:rgb(50,50,50);"/>
        <path d="M86,44L86,147L54,147L54,44L86,44ZM84.799,44.572L55.201,44.572L55.201,146.428L84.799,146.428L84.799,44.572Z"/>
    </g>
    <g id="HealthBarInner" transform="matrix(1.06566,0,0,1.06566,40.0202,23.096)">
        <rect x="128" y="30" width="23" height="167" style="fill:rgb(255,0,0);"/>
        <path d="M151,30L151,197L128,197L128,30L151,30ZM150.062,30.938L128.938,30.938C128.938,30.938 128.938,196.062 128.938,196.062C128.938,196.062 150.062,196.062 150.062,196.062L150.062,30.938Z" style="fill:rgb(50,50,50);"/>
    </g>
</svg>
